<?xml version="1.0" standalone="no"?>
<!DOCTYPE svg PUBLIC "-//W3C//DTD SVG 20010904//EN"
 "http://www.w3.org/TR/2001/REC-SVG-20010904/DTD/svg10.dtd">
<svg version="1.0" xmlns="http://www.w3.org/2000/svg"
 width="1080.000000pt" height="1080.000000pt" viewBox="0 0 1080.000000 1080.000000"
 preserveAspectRatio="xMidYMid meet">
<metadata>
Created by potrace 1.11, written by Peter Selinger 2001-2013
</metadata>
<g transform="translate(0.000000,1080.000000) scale(0.100000,-0.100000)"
fill="#000000" stroke="none">
<path d="M5170 10570 c-1160 -49 -2275 -494 -3160 -1261 -984 -852 -1609
-2044 -1755 -3344 -36 -322 -36 -809 0 -1130 168 -1493 967 -2834 2200 -3691
336 -234 753 -451 1145 -596 521 -193 1036 -295 1592 -317 885 -35 1727 146
2518 540 532 266 961 578 1381 1005 251 256 427 473 612 751 143 216 185 288
298 508 414 808 603 1662 568 2572 -41 1051 -398 2057 -1030 2898 -426 567
-1000 1071 -1600 1406 -856 476 -1795 699 -2769 659z m797 -379 c610 -79 1113
-235 1648 -510 282 -145 510 -290 745 -474 1033 -810 1670 -1942 1833 -3257
18 -151 21 -226 21 -550 0 -407 -12 -554 -69 -865 -229 -1245 -930 -2342
-1965 -3077 -617 -438 -1357 -728 -2137 -838 -364 -51 -922 -51 -1286 0 -1393
196 -2604 953 -3370 2107 -427 644 -679 1328 -779 2118 -19 147 -22 220 -22
550 0 330 3 403 21 555 163 1317 799 2446 1833 3257 235 184 463 329 745 474
545 280 1084 445 1685 513 200 23 215 24 590 21 281 -2 375 -7 507 -24z"/>
<path d="M5125 9894 c-657 -51 -1192 -197 -1754 -478 -1276 -641 -2170 -1856
-2410 -3276 -45 -264 -55 -402 -55 -740 0 -338 10 -476 55 -740 186 -1098 762
-2081 1625 -2772 603 -482 1310 -798 2074 -927 264 -45 402 -55 740 -55 248 0
361 4 475 18 578 68 1050 208 1554 460 1276 641 2170 1856 2410 3276 45 264
55 402 55 740 0 338 -10 476 -55 740 -186 1098 -762 2081 -1625 2772 -673 538
-1457 862 -2334 964 -128 15 -639 27 -755 18z m-457 -2801 c-3 -10 -150 -602
-329 -1315 l-324 -1298 -150 0 -150 0 329 1315 329 1315 149 0 c138 0 150 -1
146 -17z m-1455 -170 c4 -27 11 -118 17 -203 5 -85 14 -213 20 -285 5 -71 17
-224 25 -340 8 -115 20 -268 25 -340 6 -71 15 -193 20 -270 5 -77 16 -232 24
-345 31 -414 46 -625 46 -642 0 -16 -14 -18 -155 -18 -116 0 -157 3 -160 13
-2 6 -9 113 -15 237 -5 124 -13 264 -16 313 l-7 87 -418 0 -419 0 -14 -22 c-8
-13 -89 -158 -179 -323 l-165 -300 -156 -3 c-86 -1 -156 1 -156 6 0 4 135 244
300 533 165 288 484 845 708 1236 l407 713 131 0 131 0 6 -47z m4108 -582 c84
-26 164 -105 190 -190 17 -54 23 -231 10 -308 -6 -37 -84 -359 -172 -715
l-161 -648 -144 0 c-78 0 -145 3 -147 8 -2 4 67 293 155 642 166 662 182 748
158 835 -37 131 -209 171 -379 88 -78 -37 -235 -195 -250 -249 -5 -21 -78
-311 -161 -644 -83 -333 -155 -622 -161 -642 l-10 -38 -150 0 c-139 0 -150 1
-145 18 3 9 107 425 232 925 l226 907 139 0 c112 0 139 -3 139 -14 0 -8 -7
-48 -16 -91 -9 -42 -14 -78 -12 -80 1 -2 36 24 76 56 97 79 208 133 312 153
42 8 233 -1 271 -13z m-2203 -679 c1 -365 5 -661 10 -659 4 3 155 303 337 666
l330 661 152 0 c83 0 154 -3 156 -8 3 -4 -21 -54 -52 -112 -32 -58 -163 -301
-291 -540 -128 -239 -245 -457 -260 -485 -15 -27 -78 -144 -140 -260 -62 -115
-129 -241 -150 -280 -21 -38 -86 -160 -145 -270 -59 -110 -131 -236 -160 -280
-156 -235 -336 -355 -533 -355 -56 0 -132 15 -132 27 0 13 53 219 59 231 6 10
34 15 92 16 102 3 171 32 243 102 61 61 90 104 172 254 l67 123 -12 266 c-6
146 -18 408 -26 581 -8 173 -19 414 -25 535 -5 121 -13 273 -16 338 l-7 118
164 -3 164 -3 3 -663z m3215 641 c3 -16 33 -158 66 -318 34 -159 64 -298 69
-308 6 -15 57 50 247 317 l240 335 174 1 c137 0 171 -3 164 -12 -6 -7 -163
-205 -351 -439 -187 -235 -346 -436 -353 -447 -11 -18 -3 -52 56 -249 137
-460 205 -688 205 -695 0 -5 -76 -8 -170 -8 -168 0 -170 0 -175 23 -3 12 -34
155 -70 317 -80 367 -74 340 -83 340 -5 0 -89 -111 -187 -247 -98 -137 -210
-290 -247 -340 l-68 -93 -171 0 c-136 0 -169 3 -162 13 6 6 173 216 372 464
198 249 361 459 361 467 0 8 -18 72 -39 143 -22 70 -81 268 -131 438 -51 171
-94 313 -97 318 -2 4 74 7 170 7 l175 0 5 -27z"/>
<path d="M2655 5963 c-165 -300 -302 -550 -303 -555 -2 -4 149 -7 335 -6 l338
3 -1 30 c-2 66 -25 540 -34 700 -20 348 -22 375 -29 375 -3 0 -141 -246 -306
-547z"/>
</g>
</svg>
